<?xml version="1.0" encoding="UTF-8"?>
<!--Generator: Apple Native CoreSVG 341-->
<!DOCTYPE svg
PUBLIC "-//W3C//DTD SVG 1.1//EN"
       "http://www.w3.org/Graphics/SVG/1.1/DTD/svg11.dtd">
<svg version="1.1" xmlns="http://www.w3.org/2000/svg" xmlns:xlink="http://www.w3.org/1999/xlink" viewBox="0 0 275.5 276.125">
 <g>
  <rect height="276.125" opacity="0" width="275.5" x="0" y="0"/>
  <path d="M74.25 276.125C79.125 276.125 82.75 273.625 88.625 268.125L133.75 226.875L218.25 226.875C255.5 226.875 275.5 206.375 275.5 169.75L275.5 74C275.5 37.375 255.5 16.75 218.25 16.75L57.25 16.75C20 16.75 0 37.25 0 74L0 169.75C0 206.5 20 226.875 57.25 226.875L63.125 226.875L63.125 263.25C63.125 271 67.125 276.125 74.25 276.125Z" fill="#007aff"/>
  <path d="M201 140.25C190.75 140.25 182.5 132 182.5 121.75C182.5 111.5 190.75 103.25 201 103.25C211.25 103.25 219.5 111.5 219.5 121.75C219.5 132 211.25 140.25 201 140.25Z" fill="white" fill-opacity="0.85"/>
  <path d="M137.875 140.25C127.625 140.25 119.25 132 119.25 121.75C119.25 111.5 127.625 103.25 137.875 103.25C148 103.25 156.375 111.5 156.375 121.75C156.375 132 148 140.25 137.875 140.25Z" fill="white" fill-opacity="0.85"/>
  <path d="M74.625 140.25C64.5 140.25 56.125 132 56.125 121.75C56.125 111.5 64.5 103.25 74.625 103.25C84.875 103.25 93.125 111.5 93.125 121.75C93.125 132 84.875 140.25 74.625 140.25Z" fill="white" fill-opacity="0.85"/>
 </g>
</svg>
